<?xml version="1.0" standalone="no"?>
<!DOCTYPE svg PUBLIC "-//W3C//DTD SVG 20010904//EN"
 "http://www.w3.org/TR/2001/REC-SVG-20010904/DTD/svg10.dtd">
<svg version="1.0" xmlns="http://www.w3.org/2000/svg"
 width="1150.000000pt" height="1150.000000pt" viewBox="0 0 1150.000000 1150.000000"
 preserveAspectRatio="xMidYMid meet">
<metadata>
Created by potrace 1.14, written by Peter Selinger 2001-2017
</metadata>
<g transform="translate(0.000000,1150.000000) scale(0.100000,-0.100000)"
fill="#000000" stroke="none">
<path d="M2630 4849 c-410 -68 -816 -439 -910 -831 -95 -395 186 -692 750
-795 119 -21 465 -24 585 -5 233 38 405 111 510 216 75 75 128 178 144 276 18
110 28 320 20 415 -30 358 -233 595 -590 690 -159 42 -373 56 -509 34z m566
-429 c120 -59 217 -196 251 -353 31 -147 -2 -352 -78 -472 -163 -262 -453
-310 -641 -107 -67 73 -103 140 -128 238 -79 309 92 657 356 724 69 17 171 4
240 -30z"/>
<path d="M6835 4584 c-393 -56 -629 -247 -715 -579 -25 -96 -43 -398 -29 -486
18 -115 60 -197 141 -280 135 -136 361 -234 668 -289 177 -32 521 -39 675 -15
473 74 728 306 701 638 -17 204 -134 432 -320 625 -188 194 -395 313 -636 367
-73 16 -412 29 -485 19z m550 -388 c214 -57 406 -260 459 -486 20 -84 20 -230
1 -305 -51 -194 -199 -323 -380 -333 -156 -8 -287 48 -415 177 -124 125 -180
264 -180 451 0 293 170 507 405 509 33 1 83 -5 110 -13z"/>
<path d="M4020 3054 c-149 -40 -269 -174 -287 -321 -14 -118 54 -231 156 -259
137 -37 184 -77 195 -165 21 -162 71 -301 134 -371 73 -81 192 -123 322 -116
92 6 157 36 219 103 52 57 71 99 82 190 12 94 33 153 70 198 40 48 63 60 178
87 101 25 149 54 205 123 27 34 31 46 31 102 0 55 -6 75 -44 149 -56 111 -136
196 -206 220 -83 28 -194 30 -335 7 -69 -12 -139 -21 -157 -21 -18 0 -93 20
-167 45 -127 42 -143 45 -238 44 -57 0 -128 -7 -158 -15z"/>
</g>
</svg>
