<?xml version="1.0" standalone="no"?>
<!DOCTYPE svg PUBLIC "-//W3C//DTD SVG 20010904//EN"
 "http://www.w3.org/TR/2001/REC-SVG-20010904/DTD/svg10.dtd">
<svg version="1.0" xmlns="http://www.w3.org/2000/svg"
 width="1150.000000pt" height="1150.000000pt" viewBox="0 0 1150.000000 1150.000000"
 preserveAspectRatio="xMidYMid meet">
<metadata>
Created by potrace 1.14, written by Peter Selinger 2001-2017
</metadata>
<g transform="translate(0.000000,1150.000000) scale(0.100000,-0.100000)"
fill="#000000" stroke="none">
<path d="M584 9906 c-66 -16 -137 -58 -168 -99 -29 -38 -69 -136 -137 -337
-135 -396 -217 -816 -261 -1345 -17 -201 -17 -861 0 -1090 41 -554 143 -1179
260 -1584 l19 -65 -24 -80 c-80 -273 -67 -626 37 -996 16 -58 40 -132 53 -165
l23 -60 -47 -100 c-152 -327 -230 -658 -260 -1105 -23 -357 20 -827 109 -1185
l27 -110 5326 -3 5326 -2 27 87 c66 218 91 440 83 752 -10 434 -92 867 -243
1293 l-34 96 48 94 c135 264 212 619 229 1063 l6 170 44 105 c159 376 302 824
372 1160 60 290 91 700 91 1194 0 355 -10 551 -41 791 -77 599 -246 948 -504
1040 -65 24 -189 24 -275 1 -129 -34 -458 -214 -673 -367 -154 -111 -269 -210
-428 -368 -171 -172 -278 -298 -575 -675 -289 -369 -434 -538 -628 -732 -165
-165 -303 -281 -455 -383 -336 -224 -689 -350 -985 -351 -77 0 -112 7 -280 55
-434 123 -930 235 -1194 269 -234 30 -511 17 -932 -45 -191 -28 -569 -94 -598
-104 -32 -11 -423 269 -634 454 -369 324 -607 626 -1010 1286 -266 435 -340
546 -516 770 -117 148 -339 370 -450 448 -269 192 -528 271 -728 223z m2371
-5056 c336 -38 580 -187 695 -425 71 -147 93 -293 78 -520 -12 -185 -24 -250
-65 -334 -88 -185 -288 -300 -608 -353 -120 -19 -466 -16 -585 5 -292 53 -531
171 -650 319 -111 140 -144 293 -100 476 83 347 423 693 788 801 135 41 275
50 447 31z m4365 -285 c418 -93 798 -436 924 -832 130 -414 -119 -712 -669
-798 -154 -24 -498 -17 -675 15 -307 55 -533 153 -668 289 -81 83 -123 165
-141 280 -14 88 4 390 29 486 86 332 322 523 715 579 73 10 412 -3 485 -19z
m-2904 -1540 c74 -25 149 -45 167 -45 18 0 88 9 157 21 141 23 252 21 335 -7
70 -24 150 -109 206 -220 38 -74 44 -94 44 -149 0 -56 -4 -68 -31 -102 -56
-69 -104 -98 -205 -123 -115 -27 -138 -39 -178 -87 -37 -45 -58 -104 -70 -198
-11 -91 -30 -133 -82 -190 -62 -67 -127 -97 -219 -103 -130 -7 -249 35 -322
116 -63 70 -113 209 -134 371 -11 88 -58 128 -195 165 -42 12 -66 26 -92 56
-149 164 -23 458 223 524 30 8 101 15 158 15 95 1 111 -2 238 -44z"/>
<path d="M2956 4450 c-264 -67 -435 -415 -356 -724 67 -265 295 -419 509 -346
200 67 334 268 348 520 16 294 -159 541 -393 555 -38 2 -86 0 -108 -5z"/>
<path d="M7173 4195 c-184 -57 -303 -253 -303 -495 0 -187 56 -326 180 -451
128 -129 259 -185 415 -177 181 10 329 139 380 333 19 75 19 221 -1 305 -75
320 -415 566 -671 485z"/>
</g>
</svg>
